<?xml version="1.0" encoding="utf-8" ?>
<svg baseProfile="full" height="300mm" version="1.1" viewBox="0 0 400 300" width="400mm" xmlns="http://www.w3.org/2000/svg" xmlns:ev="http://www.w3.org/2001/xml-events" xmlns:xlink="http://www.w3.org/1999/xlink"><defs /><path d="M 3,3 L 3,31.459340771461985 L 7.0,31.459340771461985 A 60.0,60.0 0 0,1 16.5672529350244,15.000000000000007 L 16.5672529350244,11.0 L 9.7836264675122,11.0 L 9.7836264675122,7.0 L 16.5672529350244,7.0 L 16.5672529350244,3 L 3,3" fill="none" style="stroke:#000000;stroke-width:0.3" /><path d="M 3,34.45934077146198 L 3,62.91868154292396 L 7.0,62.91868154292396 A 60.0,60.0 0 0,1 16.5672529350244,46.45934077146199 L 16.5672529350244,42.45934077146198 L 9.7836264675122,42.45934077146198 L 9.7836264675122,38.45934077146198 L 16.5672529350244,38.45934077146198 L 16.5672529350244,34.45934077146198 L 3,34.45934077146198" fill="none" style="stroke:#000000;stroke-width:0.3" /><path d="M 19.5672529350244,2.9999999999999964 L 19.5672529350244,33.42961420921907 L 23.5672529350244,33.42961420921907 A 59.321159799855565,59.321159799855565 0 0,1 34.0150850393029,15.0 L 34.0150850393029,10.999999999999996 L 26.79116898716365,10.999999999999996 L 26.79116898716365,6.9999999999999964 L 34.0150850393029,6.9999999999999964 L 34.0150850393029,2.9999999999999964 L 19.5672529350244,2.9999999999999964" fill="none" style="stroke:#000000;stroke-width:0.3" /><path d="M 19.5672529350244,36.42961420921907 L 19.5672529350244,66.85922841843814 L 23.5672529350244,66.85922841843814 A 59.321159799855565,59.321159799855565 0 0,1 34.0150850393029,48.42961420921907 L 34.0150850393029,44.42961420921907 L 26.79116898716365,44.42961420921907 L 26.79116898716365,40.42961420921907 L 34.0150850393029,40.42961420921907 L 34.0150850393029,36.42961420921907 L 19.5672529350244,36.42961420921907" fill="none" style="stroke:#000000;stroke-width:0.3" /><path d="M 19.5672529350244,69.85922841843814 L 19.5672529350244,100.2888426276572 L 23.5672529350244,100.2888426276572 A 59.321159799855565,59.321159799855565 0 0,1 34.0150850393029,81.85922841843814 L 34.0150850393029,77.85922841843814 L 26.79116898716365,77.85922841843814 L 26.79116898716365,73.85922841843814 L 34.0150850393029,73.85922841843814 L 34.0150850393029,69.85922841843814 L 19.5672529350244,69.85922841843814" fill="none" style="stroke:#000000;stroke-width:0.3" /><path d="M 19.5672529350244,103.2888426276572 L 19.5672529350244,133.71845683687627 L 23.5672529350244,133.71845683687627 A 59.321159799855565,59.321159799855565 0 0,1 34.0150850393029,115.2888426276572 L 34.0150850393029,111.2888426276572 L 26.79116898716365,111.2888426276572 L 26.79116898716365,107.2888426276572 L 34.0150850393029,107.2888426276572 L 34.0150850393029,103.2888426276572 L 19.5672529350244,103.2888426276572" fill="none" style="stroke:#000000;stroke-width:0.3" /><path d="M 37.0150850393029,2.9999999999999716 L 37.0150850393029,41.16784043380074 L 41.0150850393029,41.16784043380074 A 57.23635208501674,57.23635208501674 0 0,1 54.21321592123751,14.999999999999957 L 54.21321592123751,10.999999999999972 L 45.61415048027021,10.999999999999972 L 45.61415048027021,6.999999999999972 L 54.21321592123751,6.999999999999972 L 54.21321592123751,2.9999999999999716 L 37.0150850393029,2.9999999999999716" fill="none" style="stroke:#000000;stroke-width:0.3" /><path d="M 37.0150850393029,44.16784043380074 L 37.0150850393029,82.33568086760151 L 41.0150850393029,82.33568086760151 A 57.23635208501674,57.23635208501674 0 0,1 54.21321592123751,56.16784043380072 L 54.21321592123751,52.16784043380074 L 45.61415048027021,52.16784043380074 L 45.61415048027021,48.16784043380074 L 54.21321592123751,48.16784043380074 L 54.21321592123751,44.16784043380074 L 37.0150850393029,44.16784043380074" fill="none" style="stroke:#000000;stroke-width:0.3" /><path d="M 37.0150850393029,85.33568086760151 L 37.0150850393029,123.50352130140229 L 41.0150850393029,123.50352130140229 A 57.23635208501674,57.23635208501674 0 0,1 54.21321592123751,97.33568086760148 L 54.21321592123751,93.33568086760151 L 45.61415048027021,93.33568086760151 L 45.61415048027021,89.33568086760151 L 54.21321592123751,89.33568086760151 L 54.21321592123751,85.33568086760151 L 37.0150850393029,85.33568086760151" fill="none" style="stroke:#000000;stroke-width:0.3" /><path d="M 37.0150850393029,126.50352130140229 L 37.0150850393029,164.67136173520305 L 41.015085039302896,164.67136173520305 A 57.23635208501674,57.23635208501674 0 0,1 54.21321592123751,138.50352130140226 L 54.21321592123751,134.5035213014023 L 45.61415048027021,134.5035213014023 L 45.61415048027021,130.5035213014023 L 54.21321592123751,130.5035213014023 L 54.21321592123751,126.50352130140229 L 37.0150850393029,126.50352130140229" fill="none" style="stroke:#000000;stroke-width:0.3" /><path d="M 57.21321592123751,2.9999999999999716 L 57.21321592123751,47.99999999999997 L 63.865301247840954,47.99999999999997 A 53.58171329847526,53.58171329847526 0 0,1 79.4375623861893,14.999999999999972 L 79.4375623861893,10.999999999999972 L 68.3253891537134,10.999999999999972 L 68.3253891537134,6.999999999999972 L 79.4375623861893,6.999999999999972 L 79.4375623861893,2.9999999999999716 L 57.21321592123751,2.9999999999999716" fill="none" style="stroke:#000000;stroke-width:0.3" /><path d="M 57.21321592123751,50.99999999999997 L 57.21321592123751,95.99999999999997 L 63.865301247840954,95.99999999999997 A 53.58171329847526,53.58171329847526 0 0,1 79.4375623861893,62.99999999999997 L 79.4375623861893,58.99999999999997 L 68.3253891537134,58.99999999999997 L 68.3253891537134,54.99999999999997 L 79.4375623861893,54.99999999999997 L 79.4375623861893,50.99999999999997 L 57.21321592123751,50.99999999999997" fill="none" style="stroke:#000000;stroke-width:0.3" /><path d="M 57.21321592123751,98.99999999999997 L 57.21321592123751,143.99999999999997 L 63.865301247840954,143.99999999999997 A 53.58171329847526,53.58171329847526 0 0,1 79.4375623861893,110.99999999999997 L 79.4375623861893,106.99999999999997 L 68.3253891537134,106.99999999999997 L 68.3253891537134,102.99999999999997 L 79.4375623861893,102.99999999999997 L 79.4375623861893,98.99999999999997 L 57.21321592123751,98.99999999999997" fill="none" style="stroke:#000000;stroke-width:0.3" /><path d="M 57.21321592123751,146.99999999999997 L 57.21321592123751,191.99999999999997 L 63.865301247840954,191.99999999999997 A 53.58171329847526,53.58171329847526 0 0,1 79.4375623861893,158.99999999999997 L 79.4375623861893,154.99999999999997 L 68.3253891537134,154.99999999999997 L 68.3253891537134,150.99999999999997 L 79.4375623861893,150.99999999999997 L 79.4375623861893,146.99999999999997 L 57.21321592123751,146.99999999999997" fill="none" style="stroke:#000000;stroke-width:0.3" /><path d="M 82.4375623861893,2.9999999999999716 L 82.4375623861893,47.99999999999997 L 94.69868933706927,47.99999999999997 A 48.0,48.0 0 0,1 113.11180578895895,14.999999999999993 L 113.11180578895895,10.999999999999972 L 97.77468408757412,10.999999999999972 L 97.77468408757412,6.999999999999972 L 113.11180578895895,6.999999999999972 L 113.11180578895895,2.9999999999999716 L 82.4375623861893,2.9999999999999716" fill="none" style="stroke:#000000;stroke-width:0.3" /><path d="M 82.4375623861893,50.99999999999997 L 82.4375623861893,95.99999999999997 L 94.69868933706927,95.99999999999997 A 48.0,48.0 0 0,1 113.11180578895895,62.99999999999999 L 113.11180578895895,58.99999999999997 L 97.77468408757412,58.99999999999997 L 97.77468408757412,54.99999999999997 L 113.11180578895895,54.99999999999997 L 113.11180578895895,50.99999999999997 L 82.4375623861893,50.99999999999997" fill="none" style="stroke:#000000;stroke-width:0.3" /><path d="M 82.4375623861893,98.99999999999997 L 82.4375623861893,143.99999999999997 L 94.69868933706927,143.99999999999997 A 48.0,48.0 0 0,1 113.11180578895895,111.0 L 113.11180578895895,106.99999999999997 L 97.77468408757412,106.99999999999997 L 97.77468408757412,102.99999999999997 L 113.11180578895895,102.99999999999997 L 113.11180578895895,98.99999999999997 L 82.4375623861893,98.99999999999997" fill="none" style="stroke:#000000;stroke-width:0.3" /><path d="M 82.4375623861893,146.99999999999997 L 82.4375623861893,191.99999999999997 L 94.69868933706927,191.99999999999997 A 48.0,48.0 0 0,1 113.11180578895895,159.0 L 113.11180578895895,154.99999999999997 L 97.77468408757412,154.99999999999997 L 97.77468408757412,150.99999999999997 L 113.11180578895895,150.99999999999997 L 113.11180578895895,146.99999999999997 L 82.4375623861893,146.99999999999997" fill="none" style="stroke:#000000;stroke-width:0.3" /><path d="M 116.11180578895895,2.9999999999999716 L 116.11180578895895,47.99999999999997 L 136.74176641889989,47.99999999999997 A 39.68626966596886,39.68626966596886 0 0,1 164.66628264669936,14.999999999999972 L 164.66628264669936,10.999999999999972 L 140.38904421782914,10.999999999999972 L 140.38904421782914,6.999999999999972 L 164.66628264669936,6.999999999999972 L 164.66628264669936,2.9999999999999716 L 116.11180578895895,2.9999999999999716" fill="none" style="stroke:#000000;stroke-width:0.3" /><path d="M 116.11180578895895,50.99999999999997 L 116.11180578895895,95.99999999999997 L 136.74176641889989,95.99999999999997 A 39.68626966596886,39.68626966596886 0 0,1 164.66628264669936,62.99999999999997 L 164.66628264669936,58.99999999999997 L 140.38904421782914,58.99999999999997 L 140.38904421782914,54.99999999999997 L 164.66628264669936,54.99999999999997 L 164.66628264669936,50.99999999999997 L 116.11180578895895,50.99999999999997" fill="none" style="stroke:#000000;stroke-width:0.3" /><path d="M 116.11180578895895,98.99999999999997 L 116.11180578895895,143.99999999999997 L 136.74176641889989,143.99999999999997 A 39.68626966596886,39.68626966596886 0 0,1 164.66628264669936,110.99999999999997 L 164.66628264669936,106.99999999999997 L 140.38904421782914,106.99999999999997 L 140.38904421782914,102.99999999999997 L 164.66628264669936,102.99999999999997 L 164.66628264669936,98.99999999999997 L 116.11180578895895,98.99999999999997" fill="none" style="stroke:#000000;stroke-width:0.3" /><path d="M 116.11180578895895,146.99999999999997 L 116.11180578895895,191.99999999999997 L 136.74176641889989,191.99999999999997 A 39.68626966596886,39.68626966596886 0 0,1 164.66628264669936,158.99999999999997 L 164.66628264669936,154.99999999999997 L 140.38904421782914,154.99999999999997 L 140.38904421782914,150.99999999999997 L 164.66628264669936,150.99999999999997 L 164.66628264669936,146.99999999999997 L 116.11180578895895,146.99999999999997" fill="none" style="stroke:#000000;stroke-width:0.3" /><path d="M 167.66628264669936,2.9999999999999716 L 167.66628264669936,47.99999999999997 L 201.99528734071248,47.99999999999997 A 26.153393661244042,26.153393661244042 0 0,1 217.66628264669936,28.833908052810827 L 217.66628264669936,10.999999999999972 L 192.66628264669936,10.999999999999972 L 192.66628264669936,6.999999999999972 L 217.66628264669936,6.999999999999972 L 217.66628264669936,2.9999999999999716 L 167.66628264669936,2.9999999999999716" fill="none" style="stroke:#000000;stroke-width:0.3" /><path d="M 167.66628264669936,50.99999999999997 L 167.66628264669936,95.99999999999997 L 201.99528734071248,95.99999999999997 A 26.153393661244042,26.153393661244042 0 0,1 217.66628264669936,76.83390805281083 L 217.66628264669936,58.99999999999997 L 192.66628264669936,58.99999999999997 L 192.66628264669936,54.99999999999997 L 217.66628264669936,54.99999999999997 L 217.66628264669936,50.99999999999997 L 167.66628264669936,50.99999999999997" fill="none" style="stroke:#000000;stroke-width:0.3" /><path d="M 167.66628264669936,98.99999999999997 L 167.66628264669936,143.99999999999997 L 201.99528734071248,143.99999999999997 A 26.153393661244042,26.153393661244042 0 0,1 217.66628264669936,124.83390805281083 L 217.66628264669936,106.99999999999997 L 192.66628264669936,106.99999999999997 L 192.66628264669936,102.99999999999997 L 217.66628264669936,102.99999999999997 L 217.66628264669936,98.99999999999997 L 167.66628264669936,98.99999999999997" fill="none" style="stroke:#000000;stroke-width:0.3" /><path d="M 167.66628264669936,146.99999999999997 L 167.66628264669936,191.99999999999997 L 201.99528734071248,191.99999999999997 A 26.153393661244042,26.153393661244042 0 0,1 217.66628264669936,172.83390805281084 L 217.66628264669936,154.99999999999997 L 192.66628264669936,154.99999999999997 L 192.66628264669936,150.99999999999997 L 217.66628264669936,150.99999999999997 L 217.66628264669936,146.99999999999997 L 167.66628264669936,146.99999999999997" fill="none" style="stroke:#000000;stroke-width:0.3" /><path d="M 340.66628264669936,123.0 L 336.66628264669936,123.0 L 336.66628264669936,98.0 L 332.66628264669936,98.0 L 332.66628264669936,123.0 L 327.66628264669936,123.0 L 327.66628264669936,98.7227615711298 L 323.66628264669936,98.7227615711298 L 323.66628264669936,123.0 L 318.66628264669936,123.0 L 318.66628264669936,107.66287829861518 L 314.66628264669936,107.66287829861518 L 314.66628264669936,123.0 L 309.66628264669936,123.0 L 309.66628264669936,111.8878267675241 L 305.66628264669936,111.8878267675241 L 305.66628264669936,123.0 L 300.66628264669936,123.0 L 300.66628264669936,114.40093455903269 L 296.66628264669936,114.40093455903269 L 296.66628264669936,123.0 L 291.66628264669936,123.0 L 291.66628264669936,115.77608394786074 L 287.66628264669936,115.77608394786074 L 287.66628264669936,123.0 L 282.66628264669936,123.0 L 282.66628264669936,116.21637353248781 L 278.66628264669936,116.21637353248781 L 278.66628264669936,123.0 L 273.66628264669936,123.0 L 273.66628264669936,115.77608394786074 L 269.66628264669936,115.77608394786074 L 269.66628264669936,123.0 L 264.66628264669936,123.0 L 264.66628264669936,114.40093455903269 L 260.66628264669936,114.40093455903269 L 260.66628264669936,123.0 L 255.66628264669936,123.0 L 255.66628264669936,111.8878267675241 L 251.66628264669936,111.8878267675241 L 251.66628264669936,123.0 L 246.66628264669936,123.0 L 246.66628264669936,107.66287829861518 L 242.66628264669936,107.66287829861518 L 242.66628264669936,123.0 L 237.66628264669936,123.0 L 237.66628264669936,98.7227615711298 L 233.66628264669936,98.7227615711298 L 233.66628264669936,123.0 L 228.66628264669936,123.0 L 228.66628264669936,98.0 L 224.66628264669936,98.0 L 224.66628264669936,123.0 L 220.66628264669936,123.0 L 220.66628264669936,3.0 L 224.66628264669936,3.0 L 224.66628264669936,28.0 L 228.66628264669936,28.0 L 228.66628264669936,3.0 L 233.66628264669936,3.0 L 233.66628264669936,27.277238428870202 L 237.66628264669936,27.277238428870202 L 237.66628264669936,3.0 L 242.66628264669936,3.0 L 242.66628264669936,18.33712170138482 L 246.66628264669936,18.33712170138482 L 246.66628264669936,3.0 L 251.66628264669936,3.0 L 251.66628264669936,14.112173232475893 L 255.66628264669936,14.112173232475893 L 255.66628264669936,3.0 L 260.66628264669936,3.0 L 260.66628264669936,11.599065440967305 L 264.66628264669936,11.599065440967305 L 264.66628264669936,3.0 L 269.66628264669936,3.0 L 269.66628264669936,10.223916052139252 L 273.66628264669936,10.223916052139252 L 273.66628264669936,3.0 L 278.66628264669936,3.0 L 278.66628264669936,9.7836264675122 L 282.66628264669936,9.7836264675122 L 282.66628264669936,3.0 L 287.66628264669936,3.0 L 287.66628264669936,10.223916052139252 L 291.66628264669936,10.223916052139252 L 291.66628264669936,3.0 L 296.66628264669936,3.0 L 296.66628264669936,11.599065440967305 L 300.66628264669936,11.599065440967305 L 300.66628264669936,3.0 L 305.66628264669936,3.0 L 305.66628264669936,14.112173232475893 L 309.66628264669936,14.112173232475893 L 309.66628264669936,3.0 L 314.66628264669936,3.0 L 314.66628264669936,18.33712170138482 L 318.66628264669936,18.33712170138482 L 318.66628264669936,3.0 L 323.66628264669936,3.0 L 323.66628264669936,27.277238428870202 L 327.66628264669936,27.277238428870202 L 327.66628264669936,3.0 L 332.66628264669936,3.0 L 332.66628264669936,28.0 L 336.66628264669936,28.0 L 336.66628264669936,3.0 L 340.66628264669936,3.0 L 340.66628264669936,123.0" fill="none" style="stroke:#000000;stroke-width:0.3" /><circle cx="280.66628264669936" cy="63.0" fill="none" r="40.792156108742276" style="stroke:#FF0000;stroke-width:0.3" /></svg>