<?xml version="1.0" encoding="utf-8" ?>
<svg baseProfile="full" height="300mm" version="1.1" viewBox="0 0 400 300" width="400mm" xmlns="http://www.w3.org/2000/svg" xmlns:ev="http://www.w3.org/2001/xml-events" xmlns:xlink="http://www.w3.org/1999/xlink"><defs /><path d="M 3,3 L 3,33.0 L 10.573593128807147,33.0 A 45.0,45.0 0 0,1 15.583426132260584,23.000000000000004 L 15.583426132260584,19.0 L 9.291713066130292,19.0 L 9.291713066130292,15.0 L 15.583426132260584,15.0 L 15.583426132260584,11.0 L 9.291713066130292,11.0 L 9.291713066130292,7.0 L 15.583426132260584,7.0 L 15.583426132260584,3 L 3,3" fill="none" style="stroke:#000000;stroke-width:0.3" /><path d="M 3,36.0 L 3,66.0 L 10.573593128807147,66.0 A 45.0,45.0 0 0,1 15.583426132260584,56.0 L 15.583426132260584,52.0 L 9.291713066130292,52.0 L 9.291713066130292,48.0 L 15.583426132260584,48.0 L 15.583426132260584,44.0 L 9.291713066130292,44.0 L 9.291713066130292,40.0 L 15.583426132260584,40.0 L 15.583426132260584,36.0 L 3,36.0" fill="none" style="stroke:#000000;stroke-width:0.3" /><path d="M 18.583426132260584,3.0 L 18.583426132260584,33.0 L 27.122601249004823,33.0 A 44.090815370097204,44.090815370097204 0 0,1 32.265386537590835,22.999999999999996 L 32.265386537590835,19.0 L 25.42440633492571,19.0 L 25.42440633492571,15.0 L 32.265386537590835,15.0 L 32.265386537590835,11.0 L 25.42440633492571,11.0 L 25.42440633492571,7.0 L 32.265386537590835,7.0 L 32.265386537590835,3.0 L 18.583426132260584,3.0" fill="none" style="stroke:#000000;stroke-width:0.3" /><path d="M 18.583426132260584,36.0 L 18.583426132260584,66.0 L 27.122601249004823,66.0 A 44.090815370097204,44.090815370097204 0 0,1 32.265386537590835,56.0 L 32.265386537590835,52.0 L 25.42440633492571,52.0 L 25.42440633492571,48.0 L 32.265386537590835,48.0 L 32.265386537590835,44.0 L 25.42440633492571,44.0 L 25.42440633492571,40.0 L 32.265386537590835,40.0 L 32.265386537590835,36.0 L 18.583426132260584,36.0" fill="none" style="stroke:#000000;stroke-width:0.3" /><path d="M 18.583426132260584,69.0 L 18.583426132260584,99.0 L 27.122601249004823,99.0 A 44.090815370097204,44.090815370097204 0 0,1 32.265386537590835,89.0 L 32.265386537590835,85.0 L 25.42440633492571,85.0 L 25.42440633492571,81.0 L 32.265386537590835,81.0 L 32.265386537590835,77.0 L 25.42440633492571,77.0 L 25.42440633492571,73.0 L 32.265386537590835,73.0 L 32.265386537590835,69.0 L 18.583426132260584,69.0" fill="none" style="stroke:#000000;stroke-width:0.3" /><path d="M 18.583426132260584,102.0 L 18.583426132260584,132.0 L 27.122601249004823,132.0 A 44.090815370097204,44.090815370097204 0 0,1 32.265386537590835,122.0 L 32.265386537590835,118.0 L 25.42440633492571,118.0 L 25.42440633492571,114.0 L 32.265386537590835,114.0 L 32.265386537590835,110.0 L 25.42440633492571,110.0 L 25.42440633492571,106.0 L 32.265386537590835,106.0 L 32.265386537590835,102.0 L 18.583426132260584,102.0" fill="none" style="stroke:#000000;stroke-width:0.3" /><path d="M 35.265386537590835,3.0 L 35.265386537590835,33.0 L 46.84664111299375,33.0 A 41.24318125460256,41.24318125460256 0 0,1 52.46294760387738,23.00000000000002 L 52.46294760387738,19.0 L 43.86416707073411,19.0 L 43.86416707073411,15.0 L 52.46294760387738,15.0 L 52.46294760387738,11.0 L 43.86416707073411,11.0 L 43.86416707073411,7.0 L 52.46294760387738,7.0 L 52.46294760387738,3.0 L 35.265386537590835,3.0" fill="none" style="stroke:#000000;stroke-width:0.3" /><path d="M 35.265386537590835,36.0 L 35.265386537590835,66.0 L 46.84664111299375,66.0 A 41.24318125460256,41.24318125460256 0 0,1 52.46294760387738,56.00000000000002 L 52.46294760387738,52.0 L 43.86416707073411,52.0 L 43.86416707073411,48.0 L 52.46294760387738,48.0 L 52.46294760387738,44.0 L 43.86416707073411,44.0 L 43.86416707073411,40.0 L 52.46294760387738,40.0 L 52.46294760387738,36.0 L 35.265386537590835,36.0" fill="none" style="stroke:#000000;stroke-width:0.3" /><path d="M 35.265386537590835,69.0 L 35.265386537590835,99.0 L 46.84664111299375,99.0 A 41.24318125460256,41.24318125460256 0 0,1 52.46294760387738,89.00000000000003 L 52.46294760387738,85.0 L 43.86416707073411,85.0 L 43.86416707073411,81.0 L 52.46294760387738,81.0 L 52.46294760387738,77.0 L 43.86416707073411,77.0 L 43.86416707073411,73.0 L 52.46294760387738,73.0 L 52.46294760387738,69.0 L 35.265386537590835,69.0" fill="none" style="stroke:#000000;stroke-width:0.3" /><path d="M 35.265386537590835,102.0 L 35.265386537590835,132.0 L 46.84664111299375,132.0 A 41.24318125460256,41.24318125460256 0 0,1 52.46294760387738,122.00000000000003 L 52.46294760387738,118.0 L 43.86416707073411,118.0 L 43.86416707073411,114.0 L 52.46294760387738,114.0 L 52.46294760387738,110.0 L 43.86416707073411,110.0 L 43.86416707073411,106.0 L 52.46294760387738,106.0 L 52.46294760387738,102.0 L 35.265386537590835,102.0" fill="none" style="stroke:#000000;stroke-width:0.3" /><path d="M 55.46294760387738,3.0 L 55.46294760387738,33.0 L 72.73681125997024,33.0 A 36.0,36.0 0 0,1 79.55927990990014,23.000000000000004 L 79.55927990990014,19.0 L 67.51111375688876,19.0 L 67.51111375688876,15.0 L 79.55927990990014,15.0 L 79.55927990990014,11.0 L 67.51111375688876,11.0 L 67.51111375688876,7.0 L 79.55927990990014,7.0 L 79.55927990990014,3.0 L 55.46294760387738,3.0" fill="none" style="stroke:#000000;stroke-width:0.3" /><path d="M 55.46294760387738,36.0 L 55.46294760387738,66.0 L 72.73681125997024,66.0 A 36.0,36.0 0 0,1 79.55927990990014,56.0 L 79.55927990990014,52.0 L 67.51111375688876,52.0 L 67.51111375688876,48.0 L 79.55927990990014,48.0 L 79.55927990990014,44.0 L 67.51111375688876,44.0 L 67.51111375688876,40.0 L 79.55927990990014,40.0 L 79.55927990990014,36.0 L 55.46294760387738,36.0" fill="none" style="stroke:#000000;stroke-width:0.3" /><path d="M 55.46294760387738,69.0 L 55.46294760387738,99.0 L 72.73681125997024,99.0 A 36.0,36.0 0 0,1 79.55927990990014,89.0 L 79.55927990990014,85.0 L 67.51111375688876,85.0 L 67.51111375688876,81.0 L 79.55927990990014,81.0 L 79.55927990990014,77.0 L 67.51111375688876,77.0 L 67.51111375688876,73.0 L 79.55927990990014,73.0 L 79.55927990990014,69.0 L 55.46294760387738,69.0" fill="none" style="stroke:#000000;stroke-width:0.3" /><path d="M 55.46294760387738,102.0 L 55.46294760387738,132.0 L 72.73681125997024,132.0 A 36.0,36.0 0 0,1 79.55927990990014,122.0 L 79.55927990990014,118.0 L 67.51111375688876,118.0 L 67.51111375688876,114.0 L 79.55927990990014,114.0 L 79.55927990990014,110.0 L 67.51111375688876,110.0 L 67.51111375688876,106.0 L 79.55927990990014,106.0 L 79.55927990990014,102.0 L 55.46294760387738,102.0" fill="none" style="stroke:#000000;stroke-width:0.3" /><path d="M 82.55927990990014,3.0 L 82.55927990990014,33.0 L 110.10933558925649,33.0 A 27.0,27.0 0 0,1 122.36124088271457,23.0 L 122.36124088271457,19.0 L 102.46026039630735,19.0 L 102.46026039630735,15.0 L 122.36124088271457,15.0 L 122.36124088271457,11.0 L 102.46026039630735,11.0 L 102.46026039630735,7.0 L 122.36124088271457,7.0 L 122.36124088271457,3.0 L 82.55927990990014,3.0" fill="none" style="stroke:#000000;stroke-width:0.3" /><path d="M 82.55927990990014,36.0 L 82.55927990990014,66.0 L 110.10933558925649,66.0 A 27.0,27.0 0 0,1 122.36124088271457,56.0 L 122.36124088271457,52.0 L 102.46026039630735,52.0 L 102.46026039630735,48.0 L 122.36124088271457,48.0 L 122.36124088271457,44.0 L 102.46026039630735,44.0 L 102.46026039630735,40.0 L 122.36124088271457,40.0 L 122.36124088271457,36.0 L 82.55927990990014,36.0" fill="none" style="stroke:#000000;stroke-width:0.3" /><path d="M 82.55927990990014,69.0 L 82.55927990990014,99.0 L 110.10933558925649,99.0 A 27.0,27.0 0 0,1 122.36124088271457,89.0 L 122.36124088271457,85.0 L 102.46026039630735,85.0 L 102.46026039630735,81.0 L 122.36124088271457,81.0 L 122.36124088271457,77.0 L 102.46026039630735,77.0 L 102.46026039630735,73.0 L 122.36124088271457,73.0 L 122.36124088271457,69.0 L 82.55927990990014,69.0" fill="none" style="stroke:#000000;stroke-width:0.3" /><path d="M 82.55927990990014,102.0 L 82.55927990990014,132.0 L 110.10933558925649,132.0 A 27.0,27.0 0 0,1 122.36124088271457,122.0 L 122.36124088271457,118.0 L 102.46026039630735,118.0 L 102.46026039630735,114.0 L 122.36124088271457,114.0 L 122.36124088271457,110.0 L 102.46026039630735,110.0 L 102.46026039630735,106.0 L 122.36124088271457,106.0 L 122.36124088271457,102.0 L 82.55927990990014,102.0" fill="none" style="stroke:#000000;stroke-width:0.3" /><path d="M 125.36124088271457,3.0 L 125.36124088271457,33.0 L 165.36124088271458,33.0 L 165.36124088271458,19.0 L 145.36124088271458,19.0 L 145.36124088271458,15.0 L 165.36124088271458,15.0 L 165.36124088271458,11.0 L 145.36124088271458,11.0 L 145.36124088271458,7.0 L 165.36124088271458,7.0 L 165.36124088271458,3.0 L 125.36124088271457,3.0" fill="none" style="stroke:#000000;stroke-width:0.3" /><path d="M 125.36124088271457,36.0 L 125.36124088271457,66.0 L 165.36124088271458,66.0 L 165.36124088271458,52.0 L 145.36124088271458,52.0 L 145.36124088271458,48.0 L 165.36124088271458,48.0 L 165.36124088271458,44.0 L 145.36124088271458,44.0 L 145.36124088271458,40.0 L 165.36124088271458,40.0 L 165.36124088271458,36.0 L 125.36124088271457,36.0" fill="none" style="stroke:#000000;stroke-width:0.3" /><path d="M 125.36124088271457,69.0 L 125.36124088271457,99.0 L 165.36124088271458,99.0 L 165.36124088271458,85.0 L 145.36124088271458,85.0 L 145.36124088271458,81.0 L 165.36124088271458,81.0 L 165.36124088271458,77.0 L 145.36124088271458,77.0 L 145.36124088271458,73.0 L 165.36124088271458,73.0 L 165.36124088271458,69.0 L 125.36124088271457,69.0" fill="none" style="stroke:#000000;stroke-width:0.3" /><path d="M 125.36124088271457,102.0 L 125.36124088271457,132.0 L 165.36124088271458,132.0 L 165.36124088271458,118.0 L 145.36124088271458,118.0 L 145.36124088271458,114.0 L 165.36124088271458,114.0 L 165.36124088271458,110.0 L 145.36124088271458,110.0 L 145.36124088271458,106.0 L 165.36124088271458,106.0 L 165.36124088271458,102.0 L 125.36124088271457,102.0" fill="none" style="stroke:#000000;stroke-width:0.3" /><path d="M 268.3612408827146,103.0 L 265.3612408827146,103.0 L 265.3612408827146,83.0 L 261.3612408827146,83.0 L 261.3612408827146,103.0 L 256.3612408827146,103.0 L 256.3612408827146,83.0990195135928 L 252.36124088271458,83.0990195135928 L 252.36124088271458,103.0 L 247.36124088271458,103.0 L 247.36124088271458,90.95183384698862 L 243.36124088271458,90.95183384698862 L 243.36124088271458,103.0 L 238.36124088271458,103.0 L 238.36124088271458,94.40121946685673 L 234.36124088271458,94.40121946685673 L 234.36124088271458,103.0 L 229.36124088271458,103.0 L 229.36124088271458,96.15901979733488 L 225.36124088271458,96.15901979733488 L 225.36124088271458,103.0 L 220.36124088271458,103.0 L 220.36124088271458,96.70828693386972 L 216.36124088271458,96.70828693386972 L 216.36124088271458,103.0 L 211.36124088271458,103.0 L 211.36124088271458,96.15901979733488 L 207.36124088271458,96.15901979733488 L 207.36124088271458,103.0 L 202.36124088271458,103.0 L 202.36124088271458,94.40121946685673 L 198.36124088271458,94.40121946685673 L 198.36124088271458,103.0 L 193.36124088271458,103.0 L 193.36124088271458,90.95183384698862 L 189.36124088271458,90.95183384698862 L 189.36124088271458,103.0 L 184.36124088271458,103.0 L 184.36124088271458,83.0990195135928 L 180.36124088271458,83.0990195135928 L 180.36124088271458,103.0 L 175.36124088271458,103.0 L 175.36124088271458,83.0 L 171.36124088271458,83.0 L 171.36124088271458,103.0 L 168.36124088271458,103.0 L 168.36124088271458,3.0 L 171.36124088271458,3.0 L 171.36124088271458,23.0 L 175.36124088271458,23.0 L 175.36124088271458,3.0 L 180.36124088271458,3.0 L 180.36124088271458,22.900980486407214 L 184.36124088271458,22.900980486407214 L 184.36124088271458,3.0 L 189.36124088271458,3.0 L 189.36124088271458,15.048166153011381 L 193.36124088271458,15.048166153011381 L 193.36124088271458,3.0 L 198.36124088271458,3.0 L 198.36124088271458,11.598780533143273 L 202.36124088271458,11.598780533143273 L 202.36124088271458,3.0 L 207.36124088271458,3.0 L 207.36124088271458,9.840980202665126 L 211.36124088271458,9.840980202665126 L 211.36124088271458,3.0 L 216.36124088271458,3.0 L 216.36124088271458,9.291713066130292 L 220.36124088271458,9.291713066130292 L 220.36124088271458,3.0 L 225.36124088271458,3.0 L 225.36124088271458,9.840980202665126 L 229.36124088271458,9.840980202665126 L 229.36124088271458,3.0 L 234.36124088271458,3.0 L 234.36124088271458,11.598780533143273 L 238.36124088271458,11.598780533143273 L 238.36124088271458,3.0 L 243.36124088271458,3.0 L 243.36124088271458,15.048166153011381 L 247.36124088271458,15.048166153011381 L 247.36124088271458,3.0 L 252.36124088271458,3.0 L 252.36124088271458,22.900980486407214 L 256.3612408827146,22.900980486407214 L 256.3612408827146,3.0 L 261.3612408827146,3.0 L 261.3612408827146,23.0 L 265.3612408827146,23.0 L 265.3612408827146,3.0 L 268.3612408827146,3.0 L 268.3612408827146,103.0" fill="none" style="stroke:#000000;stroke-width:0.3" /><circle cx="218.36124088271458" cy="53.0" fill="none" r="22.44994432064365" style="stroke:#FF0000;stroke-width:0.3" /><path d="M 268.3612408827146,206.0 L 265.3612408827146,206.0 L 265.3612408827146,186.0 L 261.3612408827146,186.0 L 261.3612408827146,206.0 L 256.3612408827146,206.0 L 256.3612408827146,186.0990195135928 L 252.36124088271458,186.0990195135928 L 252.36124088271458,206.0 L 247.36124088271458,206.0 L 247.36124088271458,193.95183384698862 L 243.36124088271458,193.95183384698862 L 243.36124088271458,206.0 L 238.36124088271458,206.0 L 238.36124088271458,197.40121946685673 L 234.36124088271458,197.40121946685673 L 234.36124088271458,206.0 L 229.36124088271458,206.0 L 229.36124088271458,199.15901979733488 L 225.36124088271458,199.15901979733488 L 225.36124088271458,206.0 L 220.36124088271458,206.0 L 220.36124088271458,199.70828693386972 L 216.36124088271458,199.70828693386972 L 216.36124088271458,206.0 L 211.36124088271458,206.0 L 211.36124088271458,199.15901979733488 L 207.36124088271458,199.15901979733488 L 207.36124088271458,206.0 L 202.36124088271458,206.0 L 202.36124088271458,197.40121946685673 L 198.36124088271458,197.40121946685673 L 198.36124088271458,206.0 L 193.36124088271458,206.0 L 193.36124088271458,193.95183384698862 L 189.36124088271458,193.95183384698862 L 189.36124088271458,206.0 L 184.36124088271458,206.0 L 184.36124088271458,186.0990195135928 L 180.36124088271458,186.0990195135928 L 180.36124088271458,206.0 L 175.36124088271458,206.0 L 175.36124088271458,186.0 L 171.36124088271458,186.0 L 171.36124088271458,206.0 L 168.36124088271458,206.0 L 168.36124088271458,106.0 L 171.36124088271458,106.0 L 171.36124088271458,126.0 L 175.36124088271458,126.0 L 175.36124088271458,106.0 L 180.36124088271458,106.0 L 180.36124088271458,125.9009804864072 L 184.36124088271458,125.9009804864072 L 184.36124088271458,106.0 L 189.36124088271458,106.0 L 189.36124088271458,118.04816615301138 L 193.36124088271458,118.04816615301138 L 193.36124088271458,106.0 L 198.36124088271458,106.0 L 198.36124088271458,114.59878053314327 L 202.36124088271458,114.59878053314327 L 202.36124088271458,106.0 L 207.36124088271458,106.0 L 207.36124088271458,112.84098020266512 L 211.36124088271458,112.84098020266512 L 211.36124088271458,106.0 L 216.36124088271458,106.0 L 216.36124088271458,112.29171306613028 L 220.36124088271458,112.29171306613028 L 220.36124088271458,106.0 L 225.36124088271458,106.0 L 225.36124088271458,112.84098020266512 L 229.36124088271458,112.84098020266512 L 229.36124088271458,106.0 L 234.36124088271458,106.0 L 234.36124088271458,114.59878053314327 L 238.36124088271458,114.59878053314327 L 238.36124088271458,106.0 L 243.36124088271458,106.0 L 243.36124088271458,118.04816615301138 L 247.36124088271458,118.04816615301138 L 247.36124088271458,106.0 L 252.36124088271458,106.0 L 252.36124088271458,125.9009804864072 L 256.3612408827146,125.9009804864072 L 256.3612408827146,106.0 L 261.3612408827146,106.0 L 261.3612408827146,126.0 L 265.3612408827146,126.0 L 265.3612408827146,106.0 L 268.3612408827146,106.0 L 268.3612408827146,206.0" fill="none" style="stroke:#000000;stroke-width:0.3" /><circle cx="218.36124088271458" cy="156.0" fill="none" r="32.61901286060018" style="stroke:#FF0000;stroke-width:0.3" /></svg>